<?xml version="1.0" standalone="no"?>
<!DOCTYPE svg PUBLIC "-//W3C//DTD SVG 20010904//EN"
 "http://www.w3.org/TR/2001/REC-SVG-20010904/DTD/svg10.dtd">
<svg version="1.0" xmlns="http://www.w3.org/2000/svg"
 width="400.000000pt" height="400.000000pt" viewBox="0 0 400.000000 400.000000"
 preserveAspectRatio="xMidYMid meet">
<metadata>
Created by potrace 1.11, written by Peter Selinger 2001-2013
</metadata>
<g transform="translate(0.000000,400.000000) scale(0.100000,-0.100000)"
fill="#000000" stroke="none">
<path d="M0 2000 l0 -2000 2000 0 2000 0 0 2000 0 2000 -2000 0 -2000 0 0
-2000z m779 104 l366 -491 3 493 2 494 115 0 115 0 0 -690 0 -690 -117 1 -118
0 -355 480 c-195 264 -361 485 -367 491 -10 8 -13 -89 -13 -481 l0 -491 -115
0 -115 0 0 690 0 691 117 -3 117 -3 365 -491z m2220 466 c174 -49 314 -149
411 -293 73 -109 117 -277 107 -408 -9 -109 -23 -161 -74 -268 -152 -318 -557
-471 -914 -346 -455 159 -618 712 -319 1082 106 131 280 227 465 257 66 10
251 -3 324 -24z m-1158 -1133 c22 -15 39 -38 49 -65 39 -112 -78 -213 -178
-152 -81 50 -80 171 1 220 42 26 86 25 128 -3z m1980 0 c22 -15 39 -38 49 -65
39 -112 -78 -213 -178 -152 -81 50 -80 171 1 220 42 26 86 25 128 -3z"/>
<path d="M2661 2374 c-296 -80 -449 -401 -319 -673 38 -80 140 -186 215 -225
302 -153 660 23 715 351 41 243 -114 483 -351 545 -80 21 -188 22 -260 2z"/>
</g>
</svg>
